<svg xmlns="http://www.w3.org/2000/svg" viewBox="0 0 46.55 31.5"><defs><style>.cls-1{fill:#238f37}</style></defs><g id="Layer_52" data-name="Layer 52"><path d="M6.71 19.35c.1-.7.14-1.3.26-1.88a14.62 14.62 0 0 1 7.79-10.34 26.77 26.77 0 0 1 8.18-2.65 44.09 44.09 0 0 1 8.81-.56c.5 0 1 .05 1.49.08v5l-.39.05a6.73 6.73 0 0 0-5.53 4.64 13.57 13.57 0 0 0-.83 4.77c0 .25-.08.39-.32.46A.64.64 0 0 0 26 19a4.49 4.49 0 0 1-2.09.29v-.64a11.42 11.42 0 0 1 .95-4.14.8.8 0 0 0-.41-1.13.83.83 0 0 0-1.11.49 12.46 12.46 0 0 0-1 4c0 .38-.05.75-.08 1.16a7.8 7.8 0 0 1-1.92-1 7.86 7.86 0 0 0-9 0c-.21.15-.44.28-.67.42v-.09a1.29 1.29 0 0 1 0-.19A12.45 12.45 0 0 1 17.76 10a.8.8 0 0 0 .47-1 .82.82 0 0 0-1.05-.47 4.36 4.36 0 0 0-.6.23 13.66 13.66 0 0 0-6.35 6A15.65 15.65 0 0 0 8.67 19c0 .1-.11.24-.17.25-.57.05-1.14.07-1.79.11m11.59-3.7a.82.82 0 0 0 1.6.34c.08-.27.11-.56.19-.84a7.24 7.24 0 0 1 2.68-3.92 11.68 11.68 0 0 1 4-2 .84.84 0 0 0 .69-.72.81.81 0 0 0-1.11-.85 19.33 19.33 0 0 0-2.33.9 10.51 10.51 0 0 0-4.52 3.9 8 8 0 0 0-1.16 3.2" class="cls-1"/><path d="M0 19.09v3.48c.43.1.86.19 1.28.31a7.63 7.63 0 0 1 2.52 1.21 6.13 6.13 0 0 0 7.38 0 7.91 7.91 0 0 1 9.34.06 5.67 5.67 0 0 0 5.95.63 4.56 4.56 0 0 0 .93-.59 7 7 0 0 1 8.93 0 5.32 5.32 0 0 0 6.62 0 6.9 6.9 0 0 1 3.4-1.53.73.73 0 0 0 .2-.05v-3.52a5.13 5.13 0 0 0-1.7.38c-.65.28-1.26.63-1.92.88a7.75 7.75 0 0 1-6.54-.18 7.29 7.29 0 0 1-1.14-.76 5.3 5.3 0 0 0-6.69 0 7.37 7.37 0 0 1-8.3.56 9.07 9.07 0 0 1-.83-.54 6.12 6.12 0 0 0-7.19-.06 8.18 8.18 0 0 1-6.9 1.38A13.67 13.67 0 0 1 3 19.9a9.19 9.19 0 0 0-3-.81" class="cls-1"/><path d="M46.55 28.55v-3.23a4.44 4.44 0 0 0-1.73.67c-.57.39-1.08.86-1.65 1.23a6.78 6.78 0 0 1-7.77-.4 5.69 5.69 0 0 0-2.56-1.22 5.15 5.15 0 0 0-4.13 1 7.31 7.31 0 0 1-9 .29 6.83 6.83 0 0 0-3.22-1.3 5.93 5.93 0 0 0-4 1A9.14 9.14 0 0 1 9.23 28 7.35 7.35 0 0 1 3 26.74a7.45 7.45 0 0 0-2.53-1.33l-.31-.07H0v3.18c.53.15 1 .28 1.55.44a6.72 6.72 0 0 1 2.23 1.21 6 6 0 0 0 7.41.12 7.62 7.62 0 0 1 4.72-1.5 7.49 7.49 0 0 1 4.38 1.43 6.58 6.58 0 0 0 3.4 1.29 5.24 5.24 0 0 0 3.82-1.19A6.77 6.77 0 0 1 32 28.78a7.09 7.09 0 0 1 4.34 1.58 5 5 0 0 0 5.55.62 4.21 4.21 0 0 0 1-.68 6.81 6.81 0 0 1 3.56-1.72h.12M39.91 6.51V1c0-.66-.31-1-1-1h-3.07a.83.83 0 0 0-.93.9v11.23a.86.86 0 0 0 1 .94H39a.86.86 0 0 0 .95-1V6.51M41.58 10.6V2.71c0-.22.07-.28.29-.28h4.7v8.17h-5m1.66-3.8v1.54a.82.82 0 0 0 .82.89.81.81 0 0 0 .83-.87V5.19a.8.8 0 0 0-.83-.84.81.81 0 0 0-.82.85v1.6" class="cls-1"/></g></svg>
