<svg xmlns="http://www.w3.org/2000/svg" viewBox="0 0 50 50"><defs><style>.cls-1{fill:#238f37;}</style></defs><title>dlina</title><g id="Layer_52" data-name="Layer 52"><path class="cls-1" d="M7.21,28.89c.1-.74.15-1.39.28-2a15.66,15.66,0,0,1,8.37-11.1,28.52,28.52,0,0,1,8.78-2.85,47.56,47.56,0,0,1,9.46-.6c.54,0,1.07.06,1.6.09v5.38l-.41.05a7.47,7.47,0,0,0-2.35.73,7.58,7.58,0,0,0-3.6,4.25,14.91,14.91,0,0,0-.89,5.12c0,.27-.08.43-.35.5l-.2.09a4.71,4.71,0,0,1-2.24.31c0-.24,0-.47,0-.69a12.19,12.19,0,0,1,1-4.44.87.87,0,0,0-.43-1.22.9.9,0,0,0-1.2.53,13.75,13.75,0,0,0-1.12,4.27c0,.4-.06.8-.09,1.23a8.56,8.56,0,0,1-2.06-1.07A8.23,8.23,0,0,0,17.88,26a8.32,8.32,0,0,0-5.8,1.51c-.23.16-.47.29-.72.44,0-.05,0-.07,0-.08a1.6,1.6,0,0,1,.05-.21,13.35,13.35,0,0,1,7.69-8.8.87.87,0,0,0,.5-1.12.89.89,0,0,0-1.13-.5,3.86,3.86,0,0,0-.64.25A14.68,14.68,0,0,0,11,23.93a16.68,16.68,0,0,0-1.67,4.58c0,.1-.12.26-.19.27-.61,0-1.22.08-1.92.11m12.44-4a.9.9,0,0,0,.7,1,.86.86,0,0,0,1-.6c.09-.3.13-.61.2-.9a7.8,7.8,0,0,1,2.89-4.21A12.39,12.39,0,0,1,28.71,18a.9.9,0,0,0,.74-.78.87.87,0,0,0-1.2-.91,20.36,20.36,0,0,0-2.49,1,11.28,11.28,0,0,0-4.86,4.18,8.73,8.73,0,0,0-1.25,3.44"/><path class="cls-1" d="M0,28.62v3.74c.46.11.92.2,1.37.32A8.41,8.41,0,0,1,4.08,34,6.6,6.6,0,0,0,12,34,8.51,8.51,0,0,1,22,34a6.08,6.08,0,0,0,6.39.68,5,5,0,0,0,1-.63,7.54,7.54,0,0,1,9.59,0,5.7,5.7,0,0,0,7.11,0,7.4,7.4,0,0,1,3.66-1.64l.21-.05V28.61a5.82,5.82,0,0,0-1.82.41c-.7.3-1.36.68-2.07.95a8.31,8.31,0,0,1-7-.2A7.51,7.51,0,0,1,37.87,29a5.72,5.72,0,0,0-7.2,0,7.89,7.89,0,0,1-8.91.59,9.53,9.53,0,0,1-.89-.57,6.57,6.57,0,0,0-7.72-.06,8.81,8.81,0,0,1-7.41,1.48,15.17,15.17,0,0,1-2.56-.88A10,10,0,0,0,0,28.62"/><path class="cls-1" d="M50,38.77V35.31a4.58,4.58,0,0,0-1.86.72c-.61.41-1.15.92-1.77,1.32A7.27,7.27,0,0,1,38,36.92a6,6,0,0,0-2.76-1.31,5.47,5.47,0,0,0-4.43,1,7.93,7.93,0,0,1-3.25,1.63A8.19,8.19,0,0,1,21.12,37a7.27,7.27,0,0,0-3.45-1.4,6.31,6.31,0,0,0-4.34,1.06,9.92,9.92,0,0,1-3.41,1.62,7.88,7.88,0,0,1-6.66-1.4A8.31,8.31,0,0,0,.51,35.4l-.34-.07H0v3.42c.57.15,1.12.29,1.66.46a7.19,7.19,0,0,1,2.4,1.31,6.4,6.4,0,0,0,8,.12A8.21,8.21,0,0,1,17.08,39a8.09,8.09,0,0,1,4.71,1.54A7.07,7.07,0,0,0,25.45,42a5.64,5.64,0,0,0,4.1-1.28A7.22,7.22,0,0,1,34.35,39,7.6,7.6,0,0,1,39,40.73a5.4,5.4,0,0,0,5.95.66,4.37,4.37,0,0,0,1.08-.73,7.23,7.23,0,0,1,3.82-1.85.46.46,0,0,0,.13,0"/><path class="cls-1" d="M42.87,15.1v-6c0-.71-.33-1-1.06-1H38.49a.88.88,0,0,0-1,1V21.14a.93.93,0,0,0,1,1h3.32a.92.92,0,0,0,1-1v-6"/><path class="cls-1" d="M44.66,19.49c0-.09,0-.16,0-.23q0-4.12,0-8.24c0-.24.08-.3.31-.3h4.79l.26,0v8.74H44.66m1.78-4.08v1.66a.89.89,0,1,0,1.78,0V13.68a.86.86,0,0,0-.89-.9.88.88,0,0,0-.89.91v1.72"/></g></svg>
