<svg xmlns="http://www.w3.org/2000/svg" id="Layer_51" data-name="Layer 51" viewBox="0 0 172.71 48.33"><defs><style>.cls-2{fill:#282e6a}.cls-3{fill:#238f37}</style></defs><path d="M30.19 32.33c7 3 11.75 1.84 14.43 0C43 31.22 34.22 25 32.44 23.72A2.79 2.79 0 0 1 31 21.21V2.9L26.92 0v19.5c0 .49-.55.9-1.25.9s-1.24-.44-1.24-.93V0l-4.06 2.9v18.31a2.79 2.79 0 0 1-1.46 2.51L6.77 32.34v1.51c0-.07 0 0 .39-.77 1.64-2.75 8.35-7.08 23.03-.75Z" style="fill:#20a5de"/><path d="M13.46 7.7v14a2.12 2.12 0 0 1-.23.93 2.53 2.53 0 0 1-.6.59l-1.75 1.24V9.55l-4.06 2.9-.05 15.43v4.4l10.76-7.61V4.81Z" class="cls-2"/><path d="M30.66 33.59C12.34 25.86 7 33.3 7 36.35c5.18.64 10.29 3.54 12.77 4.55 13 5.24 21.31-3.09 19.84-1.71-10.3 9.71-24.31 2-27.85.26C5.72 36.49.44 40.6.44 40.6s4.8-2.45 11.11 2.22a26.75 26.75 0 0 0 14.82 5.51C42.93 48.77 48 29.69 48 29.69s-4.5 9.31-17.34 3.9Z" class="cls-3"/><path d="M37.93 7.7v14a2.12 2.12 0 0 0 .23.93 2.53 2.53 0 0 0 .6.59l1.75 1.24V9.55l4.07 2.9v19.83l-10.72-7.61V4.81Z" class="cls-2"/><path d="M65.67 13.84 65.58 17c-2.92-.14-5.51-.2-7.77-.2.14 1.43.22 3.59.22 6.49q0 5.67.12 8.35h-3.78q.16-3.7.16-8.83c0-4-.05-7-.16-8.92ZM81.54 18.49a5.31 5.31 0 0 1-2.41 4.81 10.71 10.71 0 0 1-5.93 1.56h-.91q0 2.57.15 6.76h-3.82c.11-2.62.17-5.72.17-9.28 0-3.27-.06-6.1-.17-8.47H75.41a7.81 7.81 0 0 1 4.37 1.17 4 4 0 0 1 1.76 3.45Zm-3.54.75c0-1.94-1.29-2.92-3.86-2.92a10.55 10.55 0 0 0-2 .21c.1 1.71.15 3.66.15 5.83h.79q4.92.03 4.92-3.12ZM99.76 31.59h-3.85c.13-1.5.19-3.76.19-6.8q0-1.84.15-5.19h-.2a19.21 19.21 0 0 1-3.78 6c-3.06 3.4-4.37 4.61-4.55 6h-2.94Q85 28 85 23.17c0-3.27-.08-6.37-.24-9.33h3.84q-.2 3.47-.19 7.49c0 1.2-.06 2.7-.19 4.5h.21A32.7 32.7 0 0 1 92.27 20c2.38-2.91 4-3.77 4.53-6.12h3c-.13 3-.2 6.06-.2 9.33s.03 5.98.16 8.38ZM118.65 31.59h-3.85q.14-4.5.14-7.82h-6.86q0 3 .14 7.82h-3.85c.12-3 .17-6.09.17-9.28s-.05-6-.17-8.47h3.85q-.16 3.84-.16 7.09H115q0-2.88-.17-7.09h3.85c-.12 2.31-.19 5.13-.19 8.47s.04 6.58.16 9.28Z" class="cls-3"/><path d="M136.43 13.84q-.17 3.61-.17 8.28 0 5.18.17 9.47h-3.81c.11-2.61.16-5.65.16-9.1 0-2.4 0-4.39-.08-5.95h-2.14c-.13.7-.31 1.45-.52 2.25s-.46 1.62-.74 2.46-.59 1.68-.93 2.52-.71 1.64-1.11 2.42a22.43 22.43 0 0 1-1.26 2.17 12.35 12.35 0 0 1-1.38 1.77 6.81 6.81 0 0 1-1.5 1.2 3.48 3.48 0 0 1-1.57.5l-.65-4.27c1.7.39 2.5-1 3-1.75a26.39 26.39 0 0 0 1.34-2.57c.44-1 .85-2 1.23-3s.73-2.13 1-3.22a32.15 32.15 0 0 0 .7-3.14ZM156.75 22.39a9.79 9.79 0 0 1-2.56 6.94 8.26 8.26 0 0 1-6.32 2.76 8 8 0 0 1-6-2.53 9 9 0 0 1-2.42-6.43 9.77 9.77 0 0 1 2.55-6.94 8.27 8.27 0 0 1 6.33-2.76 8 8 0 0 1 6 2.52 9 9 0 0 1 2.42 6.44Zm-3.75.4a7.09 7.09 0 0 0-1.46-4.63 4.48 4.48 0 0 0-3.54-1.77 4.16 4.16 0 0 0-3.38 1.79 7.15 7.15 0 0 0-1.38 4.51 7 7 0 0 0 1.46 4.62 4.49 4.49 0 0 0 3.58 1.78 4.15 4.15 0 0 0 3.38-1.8 7.16 7.16 0 0 0 1.34-4.5ZM172.71 28.36l-.23 3.14a16.26 16.26 0 0 1-3.81.46q-4.66 0-7.11-2.58a8.8 8.8 0 0 1-2.44-6.28 9.56 9.56 0 0 1 2.59-6.67 9.16 9.16 0 0 1 7.11-2.83 12.34 12.34 0 0 1 3.18.4l-.48 3.15a9.84 9.84 0 0 0-3.07-.52 4.86 4.86 0 0 0-4.11 1.75 6.78 6.78 0 0 0-1.34 4.24 6.7 6.7 0 0 0 1.6 4.45A5.58 5.58 0 0 0 169 29a13.13 13.13 0 0 0 3.71-.64ZM59.84 40.22a1.77 1.77 0 0 1-.9 1.65 4.41 4.41 0 0 1-2.27.53h-1.58c.07-.48.21-1.64.43-3.49.12-1.19.2-2.25.21-3.15h2.17a2.35 2.35 0 0 1 1.36.36 1.18 1.18 0 0 1 .51 1 1.74 1.74 0 0 1-.3 1 1.48 1.48 0 0 1-.83.61 1.49 1.49 0 0 1 .84.48 1.4 1.4 0 0 1 .36 1.01Zm-.84.05c0-.73-.66-1.09-2-1.09h-.78q-.15 1.36-.21 2.43a6.22 6.22 0 0 0 .9 0 3.28 3.28 0 0 0 1.48-.3 1.11 1.11 0 0 0 .61-1.04Zm-.07-3c0-.61-.41-.92-1.24-.92a8.3 8.3 0 0 0-1.2.08c0 .08-.07.77-.19 2.07h.62a3.75 3.75 0 0 0 1.33-.18 1.07 1.07 0 0 0 .68-1.04ZM65.51 39.34a3.59 3.59 0 0 1-.7 2.27 2.3 2.3 0 0 1-1.9.9 1.73 1.73 0 0 1-1.19-.34c-.1.95-.17 1.77-.23 2.48l-.9.05a59.4 59.4 0 0 0 .64-6 10.6 10.6 0 0 0-.08-1.15l.86-.13v1.19a2.05 2.05 0 0 1 1.85-1.24 1.47 1.47 0 0 1 1.17.53 2.16 2.16 0 0 1 .48 1.44Zm-.87.3c0-1-.37-1.57-1.11-1.57a1.41 1.41 0 0 0-1.08.7 3.09 3.09 0 0 0-.61 1.63l-.1 1.16a1.79 1.79 0 0 0 .95.3 1.74 1.74 0 0 0 1.46-.62 2.46 2.46 0 0 0 .49-1.6ZM70.64 38.49a1.11 1.11 0 0 1-.64 1 6.1 6.1 0 0 1-2.76.5 2.13 2.13 0 0 0 .32 1.33 1.26 1.26 0 0 0 1.07.42 3.16 3.16 0 0 0 1.61-.52l-.13.75a2.81 2.81 0 0 1-1.7.5 1.83 1.83 0 0 1-1.53-.63 2.44 2.44 0 0 1-.49-1.58 2.93 2.93 0 0 1 .82-2.21 2.69 2.69 0 0 1 1.9-.79 1.81 1.81 0 0 1 1.09.32 1 1 0 0 1 .44.91Zm-.81 0a.46.46 0 0 0-.25-.42 1.35 1.35 0 0 0-.64-.14 1.66 1.66 0 0 0-1 .37 1.81 1.81 0 0 0-.62 1.12 5.47 5.47 0 0 0 2.15-.33.63.63 0 0 0 .36-.58ZM77.22 37.47a47 47 0 0 0-.24 4.9l-.82.05c0-.4 0-1.09.11-2.08s.14-1.68.2-2.07h-.06c-.07.2-.41.89-1 2.06a13 13 0 0 0-.91 2l-.72.1a13.3 13.3 0 0 0-.29-2.43c-.19-1-.29-1.6-.29-1.73h-.07a9.93 9.93 0 0 1-.79 2.67c-.4.92-.9 1.43-1.49 1.52v-.82a3.85 3.85 0 0 0 1.29-2.07 8.71 8.71 0 0 0 .49-2l1.09-.11a15.91 15.91 0 0 0 .29 1.77 14 14 0 0 1 .29 2.16h.06a8.05 8.05 0 0 1 .82-1.89 7.72 7.72 0 0 0 .82-1.92ZM82.35 38.56c0 .27-.06.83-.17 1.7a15.85 15.85 0 0 0-.18 2.11l-.86.05a10.54 10.54 0 0 1 .11-1.08c.07-.53.12-.91.16-1.12a7.12 7.12 0 0 1-1.23.11c-.77 1.38-1.58 2.09-2.41 2.13v-.82c.44 0 1-.51 1.71-1.43v-.05a1.33 1.33 0 0 1-1-1.33 1.28 1.28 0 0 1 .58-1.14 3.11 3.11 0 0 1 1.74-.39c1.03 0 1.55.42 1.55 1.26Zm-.75.25a.91.91 0 0 0-.22-.68 1.13 1.13 0 0 0-.77-.2 1.74 1.74 0 0 0-1.1.24.79.79 0 0 0-.26.6c0 .63.4.94 1.19.94a4.8 4.8 0 0 0 1-.1 2.73 2.73 0 0 0 .16-.8ZM93.53 37.45l-.21.75a1 1 0 0 0-.38-.09 1 1 0 0 0-.87.47 2.78 2.78 0 0 0-.4 1.63q0 1.53.75 1.53a1.72 1.72 0 0 0 .86-.25l-.13.71a1.59 1.59 0 0 1-1 .27 1.05 1.05 0 0 1-.93-.48 2.38 2.38 0 0 1-.32-1.3 2.87 2.87 0 0 1 .29-1.35l-.86 1.08a3.73 3.73 0 0 0-.78 1.26 3.53 3.53 0 0 0 0 .72l-.86.05q0-.11.18-1.17c.14-.81.24-1.45.28-1.91a11.78 11.78 0 0 1-1.94 2.31 1.36 1.36 0 0 1-.6.61 1.7 1.7 0 0 1-.79.21 1.32 1.32 0 0 1-.54-.09l.21-.75a1 1 0 0 0 .38.09 1 1 0 0 0 .88-.48 2.81 2.81 0 0 0 .39-1.62q0-1.53-.75-1.53a2 2 0 0 0-.86.24l.13-.7a1.59 1.59 0 0 1 1-.27 1 1 0 0 1 .93.48 2.32 2.32 0 0 1 .32 1.29 3.23 3.23 0 0 1-.29 1.43l.86-1.09a3.64 3.64 0 0 0 .78-1.25 3.53 3.53 0 0 0 0-.72l.86-.06c0 .07-.06.46-.18 1.18s-.23 1.45-.28 1.91a10.32 10.32 0 0 1 1.94-2.38 1.52 1.52 0 0 1 .62-.61 1.63 1.63 0 0 1 .77-.21 1.32 1.32 0 0 1 .54.09ZM98.66 37.42c-.23 1.89-.35 3.15-.35 3.77a9.68 9.68 0 0 0 .08 1.15l-.86.13v-1.19a2 2 0 0 1-1.83 1.24c-.89 0-1.33-.51-1.33-1.52 0-.26 0-.81.11-1.63s.12-1.44.12-1.84l.88-.11c0 .15 0 .64-.16 1.46a17.87 17.87 0 0 0-.16 1.87 1.23 1.23 0 0 0 .22.83.88.88 0 0 0 .68.23 1.39 1.39 0 0 0 1.07-.72 3.37 3.37 0 0 0 .6-1.61q.12-1.24.12-1.95ZM99.64 42.42a32.05 32.05 0 0 0 .36-3.57c0-.36 0-.79-.08-1.3l.86-.13v1.19a2.09 2.09 0 0 1 1.77-1.24c.72 0 1.07.41 1.07 1.24a2.09 2.09 0 0 1 1.76-1.24 1 1 0 0 1 .87.36 2 2 0 0 1 .24 1.09c0 .33 0 .9-.11 1.71s-.11 1.42-.11 1.84l-.89.05c0-.14 0-.62.15-1.45s.16-1.39.16-1.68a2.07 2.07 0 0 0-.16-1 .51.51 0 0 0-.46-.26 1.35 1.35 0 0 0-1.07.76 3.61 3.61 0 0 0-.57 1.57c-.07.73-.11 1.39-.11 2l-.88.05c0-.14.06-.64.17-1.49a14.35 14.35 0 0 0 .17-1.64 2.1 2.1 0 0 0-.15-1 .52.52 0 0 0-.46-.26 1.34 1.34 0 0 0-1.07.76 3.41 3.41 0 0 0-.57 1.57c-.08.84-.14 1.49-.17 2ZM111.68 40.71A1.51 1.51 0 0 1 111 42a2.76 2.76 0 0 1-1.64.48 1.82 1.82 0 0 1-1.1-.32 1.13 1.13 0 0 1-.43-1c0-.27 0-.85.11-1.74s.11-1.54.11-1.94l.92-.11c0 .32-.14 1-.26 1.94h.05a3 3 0 0 1 .91-.15 2.67 2.67 0 0 1 1.49.35 1.29 1.29 0 0 1 .52 1.2Zm-.77.06c0-.63-.47-.94-1.4-.94a4.49 4.49 0 0 0-.85.08 8.5 8.5 0 0 0-.06 1.09c0 .6.33.91 1 .91a1.54 1.54 0 0 0 .91-.28.94.94 0 0 0 .4-.86ZM119.14 37.5q0 .18-.72.9a11.77 11.77 0 0 1-1.11 1 6.54 6.54 0 0 1 1 1.62 4.51 4.51 0 0 1 .42 1.27l-.92.05a4.34 4.34 0 0 0-.27-1 6.36 6.36 0 0 0-.73-1.45 5.15 5.15 0 0 0-.81 1 2.74 2.74 0 0 0-.46 1.39l-.87.05c0-.32.16-1.12.32-2.38a18.42 18.42 0 0 0 .1-1.88v-.59l.93-.15c0 .19 0 .61-.12 1.27s-.17 1.32-.24 2h.05A8 8 0 0 1 117 39a5.08 5.08 0 0 0 1.14-1.49ZM124.31 39.52a3.29 3.29 0 0 1-.74 2.14 2.4 2.4 0 0 1-2 .91 1.81 1.81 0 0 1-1.38-.65 2.42 2.42 0 0 1-.58-1.67 3.13 3.13 0 0 1 .74-2.08 2.45 2.45 0 0 1 2-.87 1.83 1.83 0 0 1 1.38.6 2.27 2.27 0 0 1 .58 1.62Zm-.87.15a2.29 2.29 0 0 0-.32-1.22 1.05 1.05 0 0 0-.94-.51 1.38 1.38 0 0 0-1.21.72 2.81 2.81 0 0 0-.46 1.54 2.2 2.2 0 0 0 .33 1.22 1.07 1.07 0 0 0 1 .51 1.37 1.37 0 0 0 1.2-.71 2.86 2.86 0 0 0 .4-1.55ZM131.05 37.47a47 47 0 0 0-.24 4.9l-.81.05c0-.4 0-1.09.11-2.08s.13-1.68.19-2.07h-.06c-.07.2-.4.89-1 2.06a13 13 0 0 0-.91 2l-.72.1a14.06 14.06 0 0 0-.28-2.42c-.2-1-.3-1.6-.3-1.73H127a10.72 10.72 0 0 1-.79 2.67c-.41.92-.91 1.43-1.49 1.52v-.82a3.9 3.9 0 0 0 1.28-2.08 8.71 8.71 0 0 0 .49-2l1.09-.11c0 .16.1.75.29 1.77a12.79 12.79 0 0 1 .29 2.16h.06a8.05 8.05 0 0 1 .82-1.89 7.72 7.72 0 0 0 .82-1.93ZM138.53 39.24a3 3 0 0 1-.88 2.26 3.25 3.25 0 0 1-2.14.92 4.26 4.26 0 0 1-.43 1.57 1.49 1.49 0 0 1-1.1.73l-.2-.4a2 2 0 0 0 .65-.72 4.53 4.53 0 0 0 .37-1.74h-.05a1.43 1.43 0 0 1-1.26.56 1.19 1.19 0 0 1-1-.53 2.52 2.52 0 0 1-.35-1.4 3 3 0 0 1 .87-2.25 3.18 3.18 0 0 1 2.15-.92q.21-1.95 1.53-2.1l.2.39a1.35 1.35 0 0 0-.7.59 5.09 5.09 0 0 0-.32 1.67 1.44 1.44 0 0 1 1.27-.55 1.17 1.17 0 0 1 1 .52 2.44 2.44 0 0 1 .39 1.4Zm-3.44-1.33a2.17 2.17 0 0 0-1.59.68 2.73 2.73 0 0 0-.58 1.86 1.48 1.48 0 0 0 .25.92.71.71 0 0 0 .6.34 1.08 1.08 0 0 0 .78-.26 1 1 0 0 0 .32-.66c.03-.3.13-1.27.22-2.88Zm2.61 1.38a1.58 1.58 0 0 0-.24-.93.71.71 0 0 0-.61-.34 1.12 1.12 0 0 0-.77.26 1 1 0 0 0-.33.66c0 .31-.09 1.27-.21 2.89a2.16 2.16 0 0 0 1.58-.69 2.63 2.63 0 0 0 .58-1.85ZM144.06 39.52a3.29 3.29 0 0 1-.74 2.14 2.39 2.39 0 0 1-2 .91 1.81 1.81 0 0 1-1.38-.65 2.42 2.42 0 0 1-.57-1.67 3.08 3.08 0 0 1 .74-2.08 2.43 2.43 0 0 1 2-.87 1.83 1.83 0 0 1 1.38.6 2.27 2.27 0 0 1 .57 1.62Zm-.87.15a2.2 2.2 0 0 0-.32-1.22 1 1 0 0 0-.93-.51 1.38 1.38 0 0 0-1.22.72 2.8 2.8 0 0 0-.45 1.54 2.2 2.2 0 0 0 .33 1.22 1.05 1.05 0 0 0 .94.51 1.37 1.37 0 0 0 1.2-.71 2.86 2.86 0 0 0 .45-1.55ZM149.67 39.34a3.54 3.54 0 0 1-.71 2.27 2.28 2.28 0 0 1-1.89.9 1.73 1.73 0 0 1-1.19-.34c-.1.95-.18 1.77-.23 2.48l-.91.05q.65-4.7.65-6a10.6 10.6 0 0 0-.08-1.15l.86-.13v1.19a2 2 0 0 1 1.85-1.24 1.47 1.47 0 0 1 1.17.53 2.16 2.16 0 0 1 .48 1.44Zm-.88.3c0-1-.36-1.57-1.1-1.57a1.41 1.41 0 0 0-1.08.7 3 3 0 0 0-.61 1.63l-.11 1.16a1.85 1.85 0 0 0 1 .3 1.74 1.74 0 0 0 1.46-.62 2.52 2.52 0 0 0 .44-1.6ZM150.6 42.42a33.85 33.85 0 0 0 .35-3.57c0-.36 0-.79-.08-1.3l.86-.13v1.19a2.09 2.09 0 0 1 1.77-1.24c.72 0 1.07.41 1.07 1.24h.05a2.09 2.09 0 0 1 1.77-1.24.94.94 0 0 1 .86.36 2 2 0 0 1 .24 1.09c0 .33 0 .9-.11 1.71s-.11 1.42-.11 1.84l-.88.05c0-.14 0-.62.15-1.45s.15-1.39.15-1.68a2.07 2.07 0 0 0-.16-1 .51.51 0 0 0-.46-.26 1.35 1.35 0 0 0-1.07.76 3.61 3.61 0 0 0-.57 1.57c-.07.73-.1 1.39-.1 2l-.89.05c0-.14.06-.64.17-1.49a14.35 14.35 0 0 0 .17-1.64 2.1 2.1 0 0 0-.15-1 .52.52 0 0 0-.46-.26 1.34 1.34 0 0 0-1.07.76 3.41 3.41 0 0 0-.57 1.57c-.08.84-.14 1.49-.17 2ZM163 37.43c0 .28-.06 1-.19 2.25s-.19 2-.21 2.69l-.86.05a8.49 8.49 0 0 1 .13-1c.09-.53.15-1 .19-1.54 0 .17-.14.26-.35.26h-1.49a.41.41 0 0 0-.43.31 11.83 11.83 0 0 0-.2 1.93l-.86.05c.05-.32.16-1.12.31-2.38a18.6 18.6 0 0 0 .11-1.88v-.62l.86-.11q0 .24-.18 2.25a.34.34 0 0 1 .38-.26h1.49c.26 0 .42-.16.47-.49v-.81a3.92 3.92 0 0 0 0-.63ZM168.58 39.52a3.29 3.29 0 0 1-.74 2.14 2.4 2.4 0 0 1-2 .91 1.81 1.81 0 0 1-1.38-.65 2.38 2.38 0 0 1-.58-1.67 3.13 3.13 0 0 1 .74-2.08 2.45 2.45 0 0 1 2-.87 1.83 1.83 0 0 1 1.38.6 2.27 2.27 0 0 1 .58 1.62Zm-.87.15a2.29 2.29 0 0 0-.32-1.22 1.05 1.05 0 0 0-.94-.51 1.37 1.37 0 0 0-1.21.72 2.73 2.73 0 0 0-.46 1.54 2.2 2.2 0 0 0 .33 1.22 1.07 1.07 0 0 0 .95.51 1.37 1.37 0 0 0 1.2-.71 2.86 2.86 0 0 0 .45-1.55ZM170.63 41.53a.88.88 0 0 1-.23.6.72.72 0 0 1-.57.25c-.35 0-.53-.19-.53-.58a.84.84 0 0 1 .23-.59.75.75 0 0 1 .57-.24c.35.03.53.18.53.56Zm.51-5.34a12.86 12.86 0 0 1-.8 3.44H170V37.4c0-1.2.24-1.79.72-1.79.28 0 .42.19.42.58Z" class="cls-2"/></svg>
