<svg xmlns="http://www.w3.org/2000/svg" id="Layer_1" data-name="Layer 1" viewBox="0 0 60.36 60.74"><defs><style>.cls-1{fill:#238f37}</style></defs><path d="M11.65 0h43.22v10.73h5.48v3.62a1.25 1.25 0 0 1-.41 1c-2.43 2.41-4.84 4.83-7.26 7.25l-.51.56h5v30.48H50v7.1H0V12.29a1.42 1.42 0 0 1 .39-.91C4 7.74 7.64 4.12 11.26.49a3.81 3.81 0 0 0 .39-.49Zm2.62 14.31H3.61v42.88h42.82v-3.56H7.19V23.1H43.4l.11-.17a3.34 3.34 0 0 1-.53-.37c-2.2-2.19-4.36-4.43-6.61-6.57a2.85 2.85 0 0 1-1-2.57c.09-.88 0-1.77 0-2.72h5.45V3.6H14.27ZM10.72 50H53.6V26.74H10.72Zm29.22-35.71 7.87 7.87 7.89-7.88h-4.4V3.59h-6.92v10.7ZM6.23 10.68h4.44V6.26Z" class="cls-1"/><path d="M26.62 46.42V30.29h5.17A5.18 5.18 0 0 1 37.21 35a41.06 41.06 0 0 1-.05 7.1 5 5 0 0 1-4.65 4.35c-1.95.05-3.91-.03-5.89-.03Zm3.56-3.55c.71 0 1.36.05 2 0a1.72 1.72 0 0 0 1.55-1.74v-5.52a1.66 1.66 0 0 0-1.38-1.7 15.67 15.67 0 0 0-2.17 0ZM17.37 41v5.4h-3.53V30.3h5.31a5.43 5.43 0 0 1 5.34 4.7 5.3 5.3 0 0 1-4.31 5.91 20.86 20.86 0 0 1-2.81.09Zm.05-7.19v3.59h1.8A1.76 1.76 0 0 0 21 35.66a1.79 1.79 0 0 0-1.66-1.82c-.65-.05-1.26-.01-1.92-.01ZM50 33.82h-7.06v3.58h5.29V41h-5.32v5.47h-3.53V30.29H50Z" class="cls-1"/></svg>
