<svg xmlns="http://www.w3.org/2000/svg" viewBox="0 0 39.63 43.21"><defs><style>.cls-1{fill:#238f37}</style></defs><g id="Layer_52" data-name="Layer 52"><path d="M39.63 20.3c-.2.43-.4.85-.92 1A1.3 1.3 0 0 1 37 19.93a17.36 17.36 0 0 0-1.48-6.88 17.65 17.65 0 0 0-3.62-5.24c-.16-.16-.34-.3-.53-.47l1.41-2.23a18.45 18.45 0 0 1 3.56 4 19.83 19.83 0 0 1 3 7.76c.08.53.11 1.07.17 1.6 0 .11.06.21.08.32ZM.27 23.79h9.48a9.64 9.64 0 0 0 4.54 8.45A9.18 9.18 0 0 0 20 33.71a9.77 9.77 0 0 0 9.08-9.9h9.42v1.64a.64.64 0 0 1-.63.62c-.71.06-1.43.1-2.15.15l-.88.09a.74.74 0 0 0-.61.61c-.19.69-.38 1.38-.55 2.07a.87.87 0 0 0 .47 1.01c.72.49 1.45 1 2.16 1.47a.72.72 0 0 1 .26 1.09c-.38.68-.76 1.36-1.16 2a.74.74 0 0 1-1.13.35c-.76-.35-1.5-.72-2.25-1.09a.91.91 0 0 0-1.33.22l-1.31 1.31a.86.86 0 0 0-.19 1.2c.34.73.7 1.45 1.05 2.18s.23 1-.42 1.36L28 41.21c-.56.31-.84.25-1.2-.28l-1.46-2.13c-.32-.48-.51-.54-1.07-.4l-1.85.47a.92.92 0 0 0-.83 1c-.07.83-.12 1.66-.17 2.49 0 .64-.27.88-.91.89h-2.23c-.63 0-.88-.25-.92-.89-.06-.83-.11-1.66-.16-2.49a.9.9 0 0 0-.74-.94l-1.93-.5a.84.84 0 0 0-1.08.41c-.47.68-.92 1.36-1.38 2s-.7.69-1.38.31-1.23-.69-1.83-1a.79.79 0 0 1-.36-1.2c.35-.75.72-1.49 1.08-2.24s.3-.74-.2-1.25L8 34a.82.82 0 0 0-1.07-.19L4.58 35c-.59.28-.89.19-1.22-.36s-.75-1.29-1.11-1.94-.23-.83.3-1.2 1.34-.9 2-1.35A.94.94 0 0 0 5 28.81c-.16-.59-.3-1.18-.47-1.77s-.33-.7-.87-.75L1 26.07c-.49 0-.69-.19-.74-.67s0-1 0-1.61M28.5 2.31c-.49.62-.94 1.23-1.44 1.79a.6.6 0 0 1-.57.07A18.76 18.76 0 0 0 22.56 3a16.89 16.89 0 0 0-4.38-.12 15.91 15.91 0 0 0-5.38 1.4A17 17 0 0 0 3 16.38a26.71 26.71 0 0 0-.4 3.47c-.07.81-.36 1.3-1 1.45A1.23 1.23 0 0 1 0 20.07a29.82 29.82 0 0 1 .34-3.79A19.07 19.07 0 0 1 4 8 19.7 19.7 0 0 1 15.45.72a18.38 18.38 0 0 1 4.37-.51 19.3 19.3 0 0 1 8.41 1.93 1.27 1.27 0 0 1 .27.17M19.23 22.15a2.17 2.17 0 0 1-2-1.17v-.07a1.92 1.92 0 0 1 .22-2.45c1.58-2 3.18-4.06 4.77-6.08q2.84-3.6 5.68-7.18c.7-.9 1.4-1.8 2.12-2.69A1.22 1.22 0 0 1 31.19 2a1.15 1.15 0 0 1 1 .81A1.33 1.33 0 0 1 32 4q-2.14 3.39-4.28 6.79-3.18 5-6.34 10a2.64 2.64 0 0 1-1.66 1.32c-.16 0-.33 0-.44.06" class="cls-1"/><path d="M11 15.93a3 3 0 0 1-.67-.24c-1.11-.63-2.21-1.26-3.33-1.92a1.28 1.28 0 0 1 1.25-2.24c1.16.65 2.31 1.33 3.45 2a1.44 1.44 0 0 1 .62 1.3 1.51 1.51 0 0 1-1.32 1.1M11.65 7.71a1.36 1.36 0 0 1 .88-1.34 1.3 1.3 0 0 1 1.47.48c.69 1.15 1.38 2.31 2 3.49a1.3 1.3 0 0 1-1.08 1.91 1.49 1.49 0 0 1-1.09-.64c-.76-1.14-1.41-2.34-2.09-3.53a1 1 0 0 1-.1-.37M7.6 21H5.79a1.26 1.26 0 0 1-1.39-1.28 1.32 1.32 0 0 1 1.35-1.33h3.69a1.34 1.34 0 0 1 1.39 1.3A1.32 1.32 0 0 1 9.41 21H7.6M18.74 7.74V5.93a1.27 1.27 0 0 1 1.17-1.37 1.24 1.24 0 0 1 1.41 1.24v3.93a1.29 1.29 0 0 1-2.57-.1V7.74ZM27.52 15a1.12 1.12 0 0 1 .59-1.07c1.13-.67 2.26-1.32 3.4-2a1.27 1.27 0 0 1 1.73.48 1.2 1.2 0 0 1-.43 1.72c-1.14.67-2.29 1.31-3.42 2A1.28 1.28 0 0 1 27.52 15M32 21.44h-1.92a1.27 1.27 0 1 1 0-2.53H34a1.19 1.19 0 0 1 1.2 1.3 1.18 1.18 0 0 1-1.23 1.23H32" class="cls-1"/></g></svg>
