<svg xmlns="http://www.w3.org/2000/svg" viewBox="0 0 39.92 44.02"><defs><style>.cls-1{fill:#238f37}</style></defs><g id="Layer_52" data-name="Layer 52"><path d="M-.09 23.45 0 22.38a19.44 19.44 0 0 1 3.37-9.59 19.75 19.75 0 0 1 11-8c.86-.26 1.75-.43 2.67-.64V0l11.24 6.55L17 13V9a15.32 15.32 0 0 0-1.48 29.71 14.89 14.89 0 0 0 11.82-1.25 15.33 15.33 0 0 0 7.42-9.34l4.47 1.33a19.57 19.57 0 0 1-2 4.76 19.88 19.88 0 0 1-12.72 9.32 18 18 0 0 1-3.41.47 1.55 1.55 0 0 0-.21 0H19a1.55 1.55 0 0 0-.21 0 19.11 19.11 0 0 1-4.79-.87 19.77 19.77 0 0 1-10.31-7.46A19.54 19.54 0 0 1 0 25.62l-.09-1.05Z" class="cls-1"/><path d="M40 24.57c0 .38 0 .76-.1 1.14-.14 1-.31 2-.47 3v.05l-4.47-1.33a17.46 17.46 0 0 0 .3-4.43l4.66-.18q0 .21.06.39ZM13.92 15.33l1.2-.66.71 1a46.53 46.53 0 0 1 3.8 6.33.19.19 0 0 0 .26.13 2.17 2.17 0 0 1 1.4.11c.14.06.21 0 .3-.09a23.59 23.59 0 0 1 3.85-3.69c.12-.1.19-.11.31 0 .32.32.65.62 1 1-.39.52-.76 1-1.15 1.54a20.58 20.58 0 0 1-2.67 2.85.41.41 0 0 0-.15.39 2.39 2.39 0 1 1-4.46-.91.32.32 0 0 0 0-.41A39.91 39.91 0 0 1 14 15.51a1.05 1.05 0 0 1-.08-.18M39.89 22.18l-4.68.17a16.41 16.41 0 0 0-1.08-4.21l4.38-1.63a20.81 20.81 0 0 1 1.38 5.67M30.82 7.2a20.8 20.8 0 0 1 4.12 3.55l-3.68 2.88a16.83 16.83 0 0 0-3.36-2.75c1-1.24 2-2.46 2.92-3.68M35.37 11.24a21.28 21.28 0 0 1 2.9 4.66l-4.4 1.64a16.92 16.92 0 0 0-2.18-3.42l3.68-2.88M6.08 23.29h3.96v1.33H6.08zM27.23 30.83l.92-.92 2.77 2.75-.92.94c-.92-.92-1.85-1.84-2.77-2.77M19.97 33.66h1.35v3.94h-1.35zM12.86 30.56l.89.91L11 34.21l-.89-.89 2.75-2.76M27.53 16.45l-1-.93 2.78-2.77.93.93-2.76 2.77M13.14 16.18l-.91.89-2.75-2.75.9-.89 2.76 2.75M30.34 22.39h3.96v1.33h-3.96z" class="cls-1"/></g></svg>
